%TF.GenerationSoftware,KiCad,Pcbnew,8.0.0*%
%TF.CreationDate,2024-04-26T15:12:56-04:00*%
%TF.ProjectId,Receiver,52656365-6976-4657-922e-6b696361645f,rev?*%
%TF.SameCoordinates,Original*%
%TF.FileFunction,Legend,Top*%
%TF.FilePolarity,Positive*%
%FSLAX46Y46*%
G04 Gerber Fmt 4.6, Leading zero omitted, Abs format (unit mm)*
G04 Created by KiCad (PCBNEW 8.0.0) date 2024-04-26 15:12:56*
%MOMM*%
%LPD*%
G01*
G04 APERTURE LIST*
%ADD10C,0.150000*%
%ADD11C,0.120000*%
%ADD12C,0.152400*%
G04 APERTURE END LIST*
D10*
X197595833Y-84079580D02*
X197548214Y-84127200D01*
X197548214Y-84127200D02*
X197405357Y-84174819D01*
X197405357Y-84174819D02*
X197310119Y-84174819D01*
X197310119Y-84174819D02*
X197167262Y-84127200D01*
X197167262Y-84127200D02*
X197072024Y-84031961D01*
X197072024Y-84031961D02*
X197024405Y-83936723D01*
X197024405Y-83936723D02*
X196976786Y-83746247D01*
X196976786Y-83746247D02*
X196976786Y-83603390D01*
X196976786Y-83603390D02*
X197024405Y-83412914D01*
X197024405Y-83412914D02*
X197072024Y-83317676D01*
X197072024Y-83317676D02*
X197167262Y-83222438D01*
X197167262Y-83222438D02*
X197310119Y-83174819D01*
X197310119Y-83174819D02*
X197405357Y-83174819D01*
X197405357Y-83174819D02*
X197548214Y-83222438D01*
X197548214Y-83222438D02*
X197595833Y-83270057D01*
X198548214Y-84174819D02*
X197976786Y-84174819D01*
X198262500Y-84174819D02*
X198262500Y-83174819D01*
X198262500Y-83174819D02*
X198167262Y-83317676D01*
X198167262Y-83317676D02*
X198072024Y-83412914D01*
X198072024Y-83412914D02*
X197976786Y-83460533D01*
X204508095Y-83948819D02*
X204508095Y-84758342D01*
X204508095Y-84758342D02*
X204555714Y-84853580D01*
X204555714Y-84853580D02*
X204603333Y-84901200D01*
X204603333Y-84901200D02*
X204698571Y-84948819D01*
X204698571Y-84948819D02*
X204889047Y-84948819D01*
X204889047Y-84948819D02*
X204984285Y-84901200D01*
X204984285Y-84901200D02*
X205031904Y-84853580D01*
X205031904Y-84853580D02*
X205079523Y-84758342D01*
X205079523Y-84758342D02*
X205079523Y-83948819D01*
X206079523Y-84948819D02*
X205508095Y-84948819D01*
X205793809Y-84948819D02*
X205793809Y-83948819D01*
X205793809Y-83948819D02*
X205698571Y-84091676D01*
X205698571Y-84091676D02*
X205603333Y-84186914D01*
X205603333Y-84186914D02*
X205508095Y-84234533D01*
X197565833Y-86604819D02*
X197232500Y-86128628D01*
X196994405Y-86604819D02*
X196994405Y-85604819D01*
X196994405Y-85604819D02*
X197375357Y-85604819D01*
X197375357Y-85604819D02*
X197470595Y-85652438D01*
X197470595Y-85652438D02*
X197518214Y-85700057D01*
X197518214Y-85700057D02*
X197565833Y-85795295D01*
X197565833Y-85795295D02*
X197565833Y-85938152D01*
X197565833Y-85938152D02*
X197518214Y-86033390D01*
X197518214Y-86033390D02*
X197470595Y-86081009D01*
X197470595Y-86081009D02*
X197375357Y-86128628D01*
X197375357Y-86128628D02*
X196994405Y-86128628D01*
X198518214Y-86604819D02*
X197946786Y-86604819D01*
X198232500Y-86604819D02*
X198232500Y-85604819D01*
X198232500Y-85604819D02*
X198137262Y-85747676D01*
X198137262Y-85747676D02*
X198042024Y-85842914D01*
X198042024Y-85842914D02*
X197946786Y-85890533D01*
D11*
%TO.C,C1*%
X197501248Y-84665000D02*
X198023752Y-84665000D01*
X197501248Y-86135000D02*
X198023752Y-86135000D01*
D12*
%TO.C,U1*%
X202145800Y-81573000D02*
X202145800Y-82260598D01*
X202145800Y-83739402D02*
X202145800Y-87415000D01*
X202145800Y-87415000D02*
X208394200Y-87415000D01*
X202272800Y-81573000D02*
X208267200Y-81573000D01*
X208394200Y-81573000D02*
X202145800Y-81573000D01*
X208394200Y-82260598D02*
X208394200Y-81573000D01*
X208394200Y-87415000D02*
X208394200Y-83739402D01*
X203034800Y-83844000D02*
G75*
G02*
X202780800Y-83844000I-127000J0D01*
G01*
X202780800Y-83844000D02*
G75*
G02*
X203034800Y-83844000I127000J0D01*
G01*
D11*
%TO.C,R1*%
X197505436Y-87065000D02*
X197959564Y-87065000D01*
X197505436Y-88535000D02*
X197959564Y-88535000D01*
%TD*%
M02*
