%TF.GenerationSoftware,KiCad,Pcbnew,8.0.0*%
%TF.CreationDate,2024-04-26T15:12:56-04:00*%
%TF.ProjectId,Receiver,52656365-6976-4657-922e-6b696361645f,rev?*%
%TF.SameCoordinates,Original*%
%TF.FileFunction,Legend,Bot*%
%TF.FilePolarity,Positive*%
%FSLAX46Y46*%
G04 Gerber Fmt 4.6, Leading zero omitted, Abs format (unit mm)*
G04 Created by KiCad (PCBNEW 8.0.0) date 2024-04-26 15:12:56*
%MOMM*%
%LPD*%
G01*
G04 APERTURE LIST*
%ADD10C,0.150000*%
%ADD11C,0.120000*%
G04 APERTURE END LIST*
D10*
X195729819Y-86466666D02*
X196444104Y-86466666D01*
X196444104Y-86466666D02*
X196586961Y-86419047D01*
X196586961Y-86419047D02*
X196682200Y-86323809D01*
X196682200Y-86323809D02*
X196729819Y-86180952D01*
X196729819Y-86180952D02*
X196729819Y-86085714D01*
X196729819Y-87466666D02*
X196729819Y-86895238D01*
X196729819Y-87180952D02*
X195729819Y-87180952D01*
X195729819Y-87180952D02*
X195872676Y-87085714D01*
X195872676Y-87085714D02*
X195967914Y-86990476D01*
X195967914Y-86990476D02*
X196015533Y-86895238D01*
D11*
%TO.C,J1*%
X189215000Y-81740000D02*
X189215000Y-91860000D01*
X189215000Y-91860000D02*
X195185000Y-91860000D01*
X189975000Y-82500000D02*
X192925000Y-82500000D01*
X189975000Y-86800000D02*
X189975000Y-82500000D01*
X189975000Y-90040000D02*
X189975000Y-86800000D01*
X191585000Y-91100000D02*
X192925000Y-91100000D01*
X192925000Y-82500000D02*
X192925000Y-81750000D01*
X192925000Y-91100000D02*
X192925000Y-91850000D01*
X194225000Y-92150000D02*
X195475000Y-92150000D01*
X194425000Y-81750000D02*
X194425000Y-83550000D01*
X194425000Y-83550000D02*
X195175000Y-83550000D01*
X194425000Y-85050000D02*
X194425000Y-88550000D01*
X194425000Y-88550000D02*
X195175000Y-88550000D01*
X194425000Y-90050000D02*
X194425000Y-91850000D01*
X194425000Y-91850000D02*
X195175000Y-91850000D01*
X195175000Y-81750000D02*
X194425000Y-81750000D01*
X195175000Y-83550000D02*
X195175000Y-81750000D01*
X195175000Y-85050000D02*
X194425000Y-85050000D01*
X195175000Y-88550000D02*
X195175000Y-85050000D01*
X195175000Y-90050000D02*
X194425000Y-90050000D01*
X195175000Y-91850000D02*
X195175000Y-90050000D01*
X195185000Y-81740000D02*
X189215000Y-81740000D01*
X195185000Y-91860000D02*
X195185000Y-81740000D01*
X195475000Y-92150000D02*
X195475000Y-90900000D01*
%TD*%
M02*
